<?xml version="1.0" encoding="UTF-8" standalone="no"?>
<!-- Created with Inkscape (http://www.inkscape.org/) -->

<svg
   width="800"
   height="400"
   viewBox="0 0 800 400"
   version="1.1"
   id="svg1"
   xml:space="preserve"
   sodipodi:docname="observed_light.svg"
   inkscape:version="1.3.2 (091e20ef0f, 2023-11-25, custom)"
   inkscape:export-filename="../figure/observed_light.png"
   inkscape:export-xdpi="300"
   inkscape:export-ydpi="300"
   xmlns:inkscape="http://www.inkscape.org/namespaces/inkscape"
   xmlns:sodipodi="http://sodipodi.sourceforge.net/DTD/sodipodi-0.dtd"
   xmlns:xlink="http://www.w3.org/1999/xlink"
   xmlns="http://www.w3.org/2000/svg"
   xmlns:svg="http://www.w3.org/2000/svg"><sodipodi:namedview
     id="namedview1"
     pagecolor="#ffffff"
     bordercolor="#000000"
     borderopacity="0.25"
     inkscape:showpageshadow="2"
     inkscape:pageopacity="0.0"
     inkscape:pagecheckerboard="true"
     inkscape:deskcolor="#d1d1d1"
     inkscape:document-units="mm"
     showguides="true"
     inkscape:zoom="2.2072683"
     inkscape:cx="296.74688"
     inkscape:cy="270.92311"
     inkscape:window-width="1898"
     inkscape:window-height="1032"
     inkscape:window-x="0"
     inkscape:window-y="0"
     inkscape:window-maximized="1"
     inkscape:current-layer="layer1"><sodipodi:guide
       position="418.62002,199.9916"
       orientation="0,-1"
       id="guide19"
       inkscape:locked="false" /><sodipodi:guide
       position="418.62,199.99162"
       orientation="1,0"
       id="guide20"
       inkscape:locked="false" /><sodipodi:guide
       position="400.49503,197.94029"
       orientation="1,0"
       id="guide21"
       inkscape:locked="false" /></sodipodi:namedview><defs
     id="defs1"><linearGradient
       id="linearGradient18"
       inkscape:collect="always"><stop
         style="stop-color:#d24bff;stop-opacity:1;"
         offset="0"
         id="stop18" /><stop
         style="stop-color:#22002d;stop-opacity:1;"
         offset="1"
         id="stop19" /></linearGradient><inkscape:path-effect
       effect="simplify"
       id="path-effect15"
       is_visible="true"
       lpeversion="1.3"
       threshold="134.483"
       steps="1"
       smooth_angles="360"
       helper_size="0"
       simplify_individual_paths="false"
       simplify_just_coalesce="false" /><marker
       style="overflow:visible"
       id="SemiCircleEmpty"
       refX="2"
       refY="0"
       orient="auto-start-reverse"
       inkscape:stockid="Empty semicircle"
       markerWidth="1"
       markerHeight="1"
       viewBox="0 0 1 1"
       inkscape:isstock="true"
       inkscape:collect="always"
       preserveAspectRatio="xMidYMid"><path
         style="fill:none;fill-rule:evenodd;stroke:context-stroke;stroke-width:1.08"
         d="m -0.7647042,-3.0274156 c 1.656,0 3,1.344 3,3 0,1.656 -1.344,3 -3,3"
         id="path14" /></marker><linearGradient
       id="linearGradient7"
       inkscape:collect="always"><stop
         style="stop-color:#f1ff10;stop-opacity:0.20213623;"
         offset="0"
         id="stop7" /><stop
         style="stop-color:#f1ff10;stop-opacity:0;"
         offset="1"
         id="stop8" /></linearGradient><linearGradient
       id="linearGradient1"
       inkscape:collect="always"><stop
         style="stop-color:#fdff83;stop-opacity:0.49409181;"
         offset="0"
         id="stop1" /><stop
         style="stop-color:#f9dd00;stop-opacity:0;"
         offset="1"
         id="stop2" /></linearGradient><linearGradient
       id="linearGradient189"
       inkscape:collect="always"><stop
         style="stop-color:#f6ff54;stop-opacity:0.73979461;"
         offset="0"
         id="stop189" /><stop
         style="stop-color:#f6ff54;stop-opacity:0;"
         offset="1"
         id="stop190" /></linearGradient><marker
       style="overflow:visible"
       id="DartArrow"
       refX="0"
       refY="0"
       orient="auto-start-reverse"
       inkscape:stockid="Dart arrow"
       markerWidth="1"
       markerHeight="1"
       viewBox="0 0 1 1"
       inkscape:isstock="true"
       inkscape:collect="always"
       preserveAspectRatio="xMidYMid"><path
         style="fill:context-stroke;fill-rule:evenodd;stroke:none"
         d="M 0,0 5,-5 -12.5,0 5,5 Z"
         transform="scale(-0.5)"
         id="path6" /></marker><inkscape:path-effect
       effect="simplify"
       id="path-effect27"
       is_visible="true"
       lpeversion="1.3"
       threshold="134.483"
       steps="1"
       smooth_angles="360"
       helper_size="0"
       simplify_individual_paths="false"
       simplify_just_coalesce="false" /><inkscape:path-effect
       effect="simplify"
       id="path-effect26"
       is_visible="true"
       lpeversion="1.3"
       threshold="134.483"
       steps="1"
       smooth_angles="360"
       helper_size="0"
       simplify_individual_paths="false"
       simplify_just_coalesce="false" /><linearGradient
       id="linearGradient3"><stop
         style="stop-color:#b0a419;stop-opacity:0.50369233;"
         offset="0"
         id="stop22" /><stop
         style="stop-color:#e6dc56;stop-opacity:0.62352943;"
         offset="0.49119473"
         id="stop23" /><stop
         style="stop-color:#e6dc56;stop-opacity:0.15052083;"
         offset="1"
         id="stop24" /></linearGradient><inkscape:perspective
       sodipodi:type="inkscape:persp3d"
       inkscape:vp_x="0 : -161.25986 : 1"
       inkscape:vp_y="0 : 3779.5275 : 0"
       inkscape:vp_z="793.70079 : -161.25986 : 1"
       inkscape:persp3d-origin="396.85039 : -348.34647 : 1"
       id="perspective10" /><linearGradient
       id="linearGradient3-1"><stop
         style="stop-color:#1940b0;stop-opacity:0.50369233;"
         offset="0"
         id="stop3" /><stop
         style="stop-color:#567ce6;stop-opacity:0.62352943;"
         offset="0.49119473"
         id="stop5" /><stop
         style="stop-color:#567fe6;stop-opacity:0.15052083;"
         offset="1"
         id="stop4" /></linearGradient><radialGradient
       inkscape:collect="always"
       xlink:href="#linearGradient189"
       id="radialGradient190"
       cx="104.25137"
       cy="128.66689"
       fx="104.25137"
       fy="128.66689"
       r="24.389551"
       gradientTransform="matrix(3.5632071,-3.2954552,3.4513391,3.7317563,-379.84112,68.697819)"
       gradientUnits="userSpaceOnUse" /><radialGradient
       inkscape:collect="always"
       xlink:href="#linearGradient1"
       id="radialGradient2"
       cx="94.764122"
       cy="110.90167"
       fx="94.764122"
       fy="110.90167"
       r="23.950642"
       gradientTransform="matrix(2.6106936,4.0324991,-5.2647613,3.4084761,725.87007,-623.69142)"
       gradientUnits="userSpaceOnUse" /><radialGradient
       inkscape:collect="always"
       xlink:href="#linearGradient7"
       id="radialGradient8"
       cx="116.73392"
       cy="148.31863"
       fx="116.73392"
       fy="148.31863"
       r="15.395705"
       gradientTransform="matrix(5.9512505,-3.5674164,1.6642902,2.7764088,-448.12563,298.41424)"
       gradientUnits="userSpaceOnUse" /><radialGradient
       inkscape:collect="always"
       xlink:href="#linearGradient189"
       id="radialGradient9"
       gradientUnits="userSpaceOnUse"
       gradientTransform="matrix(3.5632071,-3.2954552,3.4513391,3.7317563,-661.45965,57.581299)"
       cx="104.25137"
       cy="128.66689"
       fx="104.25137"
       fy="128.66689"
       r="24.389551" /><inkscape:path-effect
       effect="simplify"
       id="path-effect15-3"
       is_visible="true"
       lpeversion="1.3"
       threshold="134.483"
       steps="1"
       smooth_angles="360"
       helper_size="0"
       simplify_individual_paths="false"
       simplify_just_coalesce="false" /><radialGradient
       inkscape:collect="always"
       xlink:href="#linearGradient18"
       id="radialGradient19"
       cx="115.08614"
       cy="195.77214"
       fx="115.08614"
       fy="195.77214"
       r="8.6007935"
       gradientTransform="matrix(2.4719682,0,0,4.4172735,-304.23288,-667.94332)"
       gradientUnits="userSpaceOnUse" /></defs><g
     inkscape:label="Layer 1"
     inkscape:groupmode="layer"
     id="layer1"><g
       id="g21"
       transform="translate(-33.987577,1.4234158)"><path
         id="path36-1-4"
         style="fill:url(#radialGradient8);stroke:none;stroke-width:2.89692;stroke-linecap:round;stroke-linejoin:miter;stroke-dasharray:none;stroke-dashoffset:0;stroke-opacity:1"
         d="m 550.79708,217.97308 -143.74523,96.42283 c 29.43889,6.93241 60.41464,2.33688 86.57282,-12.84386 30.61018,-17.89417 51.59019,-48.56434 57.17241,-83.57897 z"
         sodipodi:nodetypes="cccc" /><path
         style="fill:#5b93f8;fill-opacity:1;stroke:none;stroke-width:0.466836;stroke-linecap:round;stroke-linejoin:miter;stroke-dasharray:none;stroke-dashoffset:0;stroke-opacity:1"
         d="M 237.08693,252.30277 515.83681,71.817622 689.873,124.68281 306.2961,381.98246 Z"
         id="path188"
         sodipodi:nodetypes="ccccc" /><ellipse
         style="fill:#226ef6;fill-opacity:1;stroke:none;stroke-width:1.77706;stroke-linecap:round;stroke-linejoin:miter;stroke-dasharray:none;stroke-dashoffset:0;stroke-opacity:1"
         id="path36-15"
         cx="390.84302"
         cy="-276.05347"
         rx="44.435921"
         ry="118.72241"
         transform="rotate(59.995488)" /><path
         id="path36-1-4-5"
         style="fill:none;fill-opacity:1;stroke:#000000;stroke-width:1.16709;stroke-linecap:round;stroke-linejoin:miter;stroke-dasharray:4.66836, 4.66836;stroke-dashoffset:0;stroke-opacity:1"
         d="m 407.05185,314.39591 c 29.43889,6.93241 60.41464,2.33688 86.57282,-12.84386 30.61018,-17.89417 51.59019,-48.56434 57.17241,-83.57897"
         sodipodi:nodetypes="ccc" /><path
         style="fill:none;fill-opacity:1;stroke:#020308;stroke-width:0.2;stroke-linecap:butt;stroke-linejoin:round;stroke-dasharray:none;stroke-dashoffset:0;stroke-opacity:1;marker-end:url(#DartArrow)"
         d="m 146.11747,124.29695 c -9.70683,-9.70683 -19.41368,-19.41369 -29.12051,-29.12052"
         id="path26"
         sodipodi:nodetypes="cc"
         inkscape:original-d="M 146.11747,124.29695 116.99696,95.17643"
         inkscape:path-effect="#path-effect27"
         transform="matrix(4.6683552,0,0,4.6683552,-247.6231,-379.84422)" /><g
         id="g29"
         transform="matrix(3.3010258,3.3010258,-3.3010258,3.3010258,213.85027,-613.92385)"
         style="fill:#ffffff;fill-opacity:1"><rect
           style="fill:#ffffff;fill-opacity:1;stroke:#020308;stroke-width:0.2;stroke-linecap:butt;stroke-linejoin:miter;stroke-dasharray:none;stroke-dashoffset:0;stroke-opacity:1"
           id="rect29"
           width="7.0068297"
           height="4.3462076"
           x="103.02394"
           y="87.751534" /><path
           style="fill:#ffffff;fill-opacity:1;stroke:#020308;stroke-width:0.2;stroke-linecap:butt;stroke-linejoin:miter;stroke-dasharray:none;stroke-dashoffset:0;stroke-opacity:1"
           d="m 110.03077,88.945802 1.48662,-0.858301 v 3.674272 l -1.48662,-0.858301 z"
           id="path29" /></g><path
         d="m 247.553,137.05788 c -0.36786,-0.6285 -1.17586,-0.83946 -1.80403,-0.47105 -0.6277,0.3674 -0.8391,1.17392 -0.47231,1.80194 0.36741,0.62771 1.17387,0.8391 1.80195,0.47231 0.62924,-0.36647 0.84189,-1.17415 0.47472,-1.80312 z"
         style="fill:url(#radialGradient9);fill-opacity:0.390656;stroke:none;stroke-width:4.66836;stroke-linecap:round;stroke-linejoin:miter;stroke-dasharray:none;stroke-dashoffset:0;stroke-opacity:1"
         id="path1" /><path
         id="path2-5"
         style="fill:none;stroke:#000000;stroke-width:1.16709;stroke-linecap:butt;stroke-linejoin:round;stroke-dasharray:none;stroke-opacity:1"
         d="m 434.50514,195.72729 v 9.38161 m 4.69079,-4.69079 h -9.3816" /><path
         id="path36"
         style="fill:url(#radialGradient190);fill-opacity:0.390656;stroke:none;stroke-width:4.66836;stroke-linecap:round;stroke-linejoin:miter;stroke-dasharray:none;stroke-dashoffset:0;stroke-opacity:1"
         d="m 540.23,150.20774 c -0.0849,-0.14708 -0.27358,-0.197 -0.42063,-0.11203 -0.14799,0.0854 -0.19795,0.27544 -0.11113,0.42249 0.0859,0.14753 0.27542,0.19747 0.42248,0.11073 0.14605,-0.0865 0.19467,-0.27496 0.10829,-0.42107 z m -17.01215,-25.1249 c -0.12411,-0.21381 -0.39823,-0.28663 -0.61175,-0.16198 -0.21473,0.12463 -0.28663,0.40006 -0.16058,0.61382 0.12514,0.21336 0.39961,0.28431 0.61263,0.15874 0.21239,-0.12463 0.28383,-0.39775 0.16012,-0.61049 z m 8.95278,15.53998 c -0.2054,-0.34967 -0.65538,-0.46707 -1.00533,-0.2619 -0.34919,0.20495 -0.46684,0.65344 -0.26329,1.00328 0.20447,0.35059 0.65385,0.46921 1.00447,0.26515 0.35107,-0.20494 0.46948,-0.65585 0.26377,-1.00659 z m -18.58154,-28.4884 c -0.11241,-0.19421 -0.36134,-0.26003 -0.55557,-0.14753 -0.19515,0.11305 -0.26051,0.36367 -0.14621,0.55773 0.11395,0.19375 0.3632,0.25815 0.55651,0.14428 0.19281,-0.11356 0.25724,-0.36133 0.14517,-0.55441 z m 25.33684,46.28268 c -0.22548,-0.38514 -0.72019,-0.51498 -1.10557,-0.28991 -0.38513,0.22548 -0.51495,0.72018 -0.28989,1.10556 0.22549,0.38515 0.72019,0.51496 1.10556,0.28991 0.38512,-0.22549 0.51492,-0.72014 0.2899,-1.10552 z m -17.97806,-27.7095 c -0.26703,-0.4589 -0.85581,-0.61324 -1.3135,-0.34452 -0.45703,0.26749 -0.61042,0.85543 -0.34219,1.31222 0.26704,0.45658 0.85342,0.61017 1.31013,0.34359 0.45795,-0.26656 0.61258,-0.85393 0.34545,-1.31138 z m -9.66715,-14.65859 c -0.22734,-0.39074 -0.729,-0.52206 -1.11881,-0.29317 -0.38935,0.22829 -0.51967,0.72853 -0.29131,1.11756 0.22734,0.38841 0.72654,0.5194 1.11546,0.29271 0.3898,-0.22689 0.52178,-0.72706 0.29457,-1.11673 z m 17.89083,32.12538 c -0.36787,-0.6285 -1.17583,-0.83947 -1.80405,-0.47102 -0.62771,0.3674 -0.83908,1.17384 -0.47229,1.80193 0.3674,0.6277 1.17385,0.83909 1.80193,0.47229 0.6293,-0.36647 0.8419,-1.17414 0.47473,-1.8031 z m -28.19898,-43.47787 c -0.18113,-0.30906 -0.5784,-0.41316 -0.88779,-0.2325 -0.30904,0.18113 -0.41313,0.57837 -0.23247,0.88773 0.18114,0.30905 0.57836,0.41315 0.88773,0.2325 0.30905,-0.18114 0.41316,-0.57842 0.23249,-0.8878 z m 34.01813,63.06005 c -0.41829,-0.71479 -1.33689,-0.95492 -2.05142,-0.53626 -0.71402,0.41781 -0.95463,1.33501 -0.53753,2.04945 0.41783,0.71402 1.33503,0.95459 2.04943,0.5375 0.71541,-0.41688 0.957,-1.33537 0.53946,-2.05057 z m -28.4117,-45.6058 c -0.40475,-0.69168 -1.29394,-0.92403 -1.98545,-0.51888 -0.69092,0.40429 -0.9237,1.29202 -0.52016,1.9834 0.40427,0.69091 1.29197,0.92374 1.98339,0.52021 0.69236,-0.40383 0.92617,-1.29249 0.52213,-1.98467 z m 9.06402,16.71013 c -0.42342,-0.72672 -1.35676,-0.9714 -2.08242,-0.54598 -0.72527,0.42436 -0.96895,1.35629 -0.54405,2.08116 0.4239,0.72438 1.35452,0.96826 2.07915,0.54484 0.72594,-0.42296 0.97098,-1.35475 0.54722,-2.08027 z M 497.0344,108.65294 c -0.28711,-0.4912 -0.91814,-0.65656 -1.40924,-0.36928 -0.49115,0.28712 -0.65651,0.91809 -0.36927,1.4092 0.2871,0.49115 0.91808,0.65651 1.40919,0.36928 0.49135,-0.28712 0.65689,-0.918 0.36974,-1.4092 z m 26.0827,49.25577 c -0.53303,-0.91239 -1.70498,-1.21961 -2.61703,-0.68607 -0.91093,0.53366 -1.21709,1.70452 -0.68404,2.61577 0.53251,0.91161 1.70295,1.21928 2.61492,0.68738 0.91247,-0.53298 1.21975,-1.70498 0.68615,-2.61708 z M 487.23296,97.082427 c -0.1494,-0.257704 -0.47992,-0.345008 -0.73714,-0.194671 -0.25723,0.150325 -0.34312,0.4813 -0.19187,0.738014 0.14985,0.256302 0.47943,0.342653 0.73592,0.192805 0.25629,-0.149861 0.34265,-0.479499 0.19281,-0.735968 z M 476.50577,87.78568 c -0.0845,-0.145167 -0.27075,-0.194221 -0.41594,-0.109194 -0.14339,0.0854 -0.19141,0.270296 -0.10689,0.414562 0.084,0.144266 0.2689,0.193268 0.41362,0.110094 0.14516,-0.0845 0.19422,-0.270758 0.10919,-0.415951 z m 23.50158,42.78943 c -0.54262,-0.92835 -1.73506,-1.24095 -2.66331,-0.6982 -0.92825,0.54261 -1.24085,1.73501 -0.69815,2.66321 0.54256,0.92825 1.73494,1.24089 2.66316,0.69825 0.92835,-0.54256 1.24098,-1.73501 0.6983,-2.66326 z m -9.08337,-15.31835 c -0.46589,-0.79522 -1.48761,-1.06304 -2.28366,-0.59869 -0.79675,0.46498 -1.06574,1.488 -0.60087,2.28493 0.46545,0.79758 1.49001,1.06616 2.28708,0.5996 0.79605,-0.46636 1.06344,-1.48963 0.5974,-2.28581 z m 36.76951,63.48878 c -0.55576,-0.95164 -1.77803,-1.27212 -2.7292,-0.71552 -0.95021,0.5564 -1.26956,1.77766 -0.71347,2.72801 0.55594,0.9494 1.77571,1.26918 2.72593,0.71466 0.95085,-0.55524 1.27171,-1.77612 0.71674,-2.72715 z m -46.26116,-77.00078 c -0.36646,-0.62691 -1.17167,-0.83807 -1.79858,-0.47165 -0.62691,0.36647 -0.83811,1.17171 -0.47164,1.79863 0.36646,0.62691 1.17167,0.83801 1.79858,0.4716 0.62693,-0.36647 0.83807,-1.17166 0.47164,-1.79858 z m 26.67387,47.16933 c -0.63601,-1.08819 -2.03387,-1.45465 -3.12196,-0.81845 -1.08825,0.63601 -1.45471,2.03382 -0.81856,3.12196 0.63601,1.08824 2.03387,1.45472 3.12201,0.8185 1.08823,-0.63601 1.45471,-2.03386 0.81851,-3.12201 z M 470.46814,90.775763 c -0.18021,-0.308134 -0.57612,-0.411759 -0.88446,-0.232021 -0.30952,0.179726 -0.4141,0.576539 -0.2339,0.885624 0.1802,0.310448 0.57862,0.414548 0.88779,0.232483 0.30858,-0.180665 0.41222,-0.578082 0.23061,-0.886524 z m 43.60603,78.673027 c -0.67256,-1.15 -2.14986,-1.53728 -3.30016,-0.86519 -1.15,0.67258 -1.53734,2.14988 -0.86522,3.30015 0.67191,1.1515 2.15033,1.53991 3.30141,0.8673 1.1508,-0.67305 1.5377,-2.15183 0.86397,-3.30226 z M 459.23169,82.668039 c -0.0962,-0.162466 -0.30531,-0.217551 -0.46865,-0.122827 -0.16387,0.0953 -0.21989,0.30578 -0.12463,0.469865 0.0957,0.164807 0.30766,0.220355 0.47198,0.123728 0.16339,-0.09659 0.21755,-0.30717 0.12128,-0.470753 z m 23.78933,41.685181 c -0.61322,-1.04903 -1.96072,-1.40228 -3.00973,-0.78909 -1.04903,0.61319 -1.40234,1.9607 -0.78915,3.00975 0.61323,1.04901 1.96076,1.40231 3.00979,0.78909 1.04901,-0.61324 1.40228,-1.96072 0.78909,-3.00975 z m -9.43718,-14.82936 c -0.51001,-0.87143 -1.62957,-1.16493 -2.50153,-0.65581 -0.87145,0.51002 -1.16494,1.6296 -0.65581,2.50154 0.50931,0.87294 1.62997,1.16756 2.50274,0.65796 0.87229,-0.51048 1.16542,-1.63159 0.6546,-2.50369 z m 17.1949,31.71901 c -0.69884,-1.19478 -2.23365,-1.59715 -3.4288,-0.89894 -1.19482,0.6988 -1.59723,2.2337 -0.899,3.42885 0.69887,1.19478 2.23373,1.59719 3.42888,0.89895 1.19478,-0.69886 1.59718,-2.23372 0.89892,-3.42886 z M 462.79688,96.587443 c -0.36834,-0.630376 -1.17821,-0.842653 -1.80848,-0.474071 -0.63044,0.368325 -0.8427,1.178194 -0.47407,1.808518 0.36832,0.630402 1.17819,0.842679 1.80851,0.474071 0.63036,-0.368337 0.84264,-1.178207 0.47407,-1.808479 z m 54.56946,93.560227 c -0.63727,-1.09127 -2.0385,-1.45937 -3.1298,-0.82224 -1.09207,0.6377 -1.45979,2.0403 -0.82112,3.13182 0.6384,1.09062 2.03998,1.45726 3.13065,0.81902 1.08983,-0.63788 1.45689,-2.03802 0.82027,-3.1286 z m -19.67323,-29.46265 c -0.76876,-1.31446 -2.45734,-1.75716 -3.7721,-0.98894 -1.31446,0.76873 -1.75715,2.45734 -0.98893,3.77207 0.76874,1.31447 2.45733,1.75717 3.77207,0.98895 1.31448,-0.76874 1.75716,-2.45732 0.98896,-3.77208 z M 451.4959,86.561403 c -0.25771,-0.441172 -0.82379,-0.590171 -1.26526,-0.333329 -0.44165,0.258167 -0.59032,0.825638 -0.33194,1.267221 0.25817,0.441622 0.8257,0.590364 1.26729,0.331914 0.44022,-0.258616 0.58802,-0.825265 0.33005,-1.266088 z m 50.87718,95.131837 c -0.73919,-1.26322 -2.36248,-1.68804 -3.62567,-0.94879 -1.26243,0.73871 -1.68761,2.36048 -0.95001,3.62356 0.73801,1.26387 2.36091,1.69019 3.62478,0.95211 1.2647,-0.73849 1.69059,-2.36289 0.9509,-3.62688 z m -29.23199,-46.16298 c -0.75841,-1.29758 -2.42516,-1.73454 -3.72263,-0.97598 -1.29752,0.75843 -1.73453,2.42511 -0.97596,3.72259 0.75841,1.29752 2.42512,1.73454 3.72258,0.97598 1.29757,-0.75839 1.73458,-2.42513 0.97601,-3.72259 z m -9.14277,-15.48205 c -0.63803,-1.09169 -2.04031,-1.45933 -3.13191,-0.82111 -1.09166,0.63806 -1.45929,2.04034 -0.82108,3.13189 0.63803,1.09166 2.04031,1.45929 3.13187,0.82112 1.09169,-0.63802 1.45932,-2.04031 0.82112,-3.1319 z m -23.4942,-40.116807 c -0.14986,-0.256765 -0.47948,-0.343116 -0.73593,-0.192806 -0.25675,0.149849 -0.34312,0.479487 -0.19281,0.735917 0.14987,0.256765 0.47949,0.34313 0.73593,0.192805 0.25677,-0.149861 0.34312,-0.479485 0.19281,-0.735916 z m 13.01485,25.734667 c -0.5554,-0.94949 -1.77551,-1.26862 -2.72468,-0.71266 -0.94866,0.55493 -1.26817,1.77364 -0.7138,2.72263 0.55494,0.94866 1.77366,1.2682 2.72264,0.71383 0.9501,-0.55427 1.27064,-1.77402 0.71584,-2.7238 z m 26.38597,47.92446 c -0.79017,-1.3514 -2.52615,-1.80651 -3.87773,-1.01663 -1.35138,0.79016 -1.8065,2.52614 -1.01662,3.87767 0.79016,1.35139 2.52613,1.80652 3.87772,1.01663 1.3514,-0.79017 1.80652,-2.52615 1.01663,-3.87767 z M 442.23678,93.851823 c -0.41503,-0.709447 -1.32643,-0.948476 -2.03621,-0.533966 -0.70944,0.415011 -0.94842,1.326421 -0.53392,2.036204 0.41455,0.710888 1.32689,0.950946 2.03747,0.535921 0.71018,-0.415487 0.94874,-1.328377 0.53266,-2.038249 z m 62.83377,107.865187 c -0.75786,-1.29625 -2.42296,-1.7328 -3.71933,-0.97507 -1.29621,0.75787 -1.73275,2.42293 -0.97507,3.71923 0.7578,1.29626 2.4229,1.73281 3.71927,0.97513 1.29626,-0.75782 1.7328,-2.42292 0.97513,-3.71929 z M 485.64142,173.6094 c -0.83144,-1.42127 -2.65728,-1.89991 -4.07903,-1.06936 -1.42128,0.83143 -1.89992,2.65728 -1.06937,4.07901 0.83073,1.42272 2.65764,1.90249 4.08023,1.07148 1.42208,-0.8319 1.90035,-2.65919 1.06817,-4.08113 z M 431.05666,85.199792 c -0.24322,-0.416426 -0.7783,-0.556988 -1.19463,-0.313265 -0.41501,0.244161 -0.55427,0.777986 -0.31091,1.193474 0.24276,0.41595 0.77644,0.556371 1.19259,0.314178 0.41688,-0.243221 0.55703,-0.778308 0.31324,-1.194669 z m 58.57092,108.250178 c -0.86804,-1.48439 -2.77528,-1.98364 -4.25926,-1.11495 -1.4836,0.86758 -1.98326,2.77338 -1.11616,4.25726 0.86757,1.48361 2.77343,1.98326 4.25726,1.11612 1.48504,-0.86691 1.98574,-2.77379 1.11816,-4.25843 z m -27.07996,-45.54593 c -0.84679,-1.44989 -2.709,-1.9381 -4.1582,-1.09018 -1.4484,0.84744 -1.93554,2.70857 -1.08809,4.15697 0.84697,1.44757 2.70665,1.93513 4.15493,1.08927 1.449,-0.84633 1.93759,-2.70699 1.09136,-4.15606 z m -9.07355,-15.28778 c -0.76052,-1.30284 -2.4338,-1.74159 -3.73576,-0.97946 -1.30139,0.76122 -1.739,2.43347 -0.97732,3.73459 0.76076,1.30055 2.43147,1.73859 3.73245,0.97857 1.30204,-0.76004 1.74115,-2.43193 0.98063,-3.7337 z m -10.2293,-14.98938 c -0.6835,-1.17024 -2.18657,-1.56433 -3.35631,-0.87995 -1.16873,0.68418 -1.56171,2.18614 -0.87785,3.35505 0.68304,1.16943 2.1846,1.56387 3.35422,0.88116 1.17021,-0.6835 1.56426,-2.18656 0.87994,-3.35626 z M 421.35714,80.239935 c -0.11717,-0.199338 -0.37347,-0.265639 -0.5729,-0.148459 -0.19842,0.116781 -0.26563,0.372067 -0.14986,0.570943 0.11626,0.199802 0.37254,0.267954 0.5722,0.151726 0.20074,-0.116781 0.26796,-0.374408 0.15033,-0.57421 z m 10.89118,24.027975 c -0.57785,-0.98769 -1.84676,-1.32036 -2.83486,-0.74321 -0.98917,0.5772 -1.32292,1.84713 -0.74531,2.83608 0.57836,0.98853 1.84871,1.32077 2.83696,0.74199 0.98768,-0.57785 1.32035,-1.84676 0.74321,-2.83486 z m 35.94175,62.2541 c -0.86938,-1.48729 -2.77986,-1.98817 -4.2671,-1.11867 -1.48734,0.86934 -1.98826,2.77985 -1.11877,4.2671 0.86934,1.48735 2.77991,1.98826 4.26715,1.11872 1.48733,-0.86934 1.98825,-2.77991 1.11872,-4.26715 z M 421.22474,93.861765 c -0.40988,-0.699827 -1.30924,-0.935538 -2.00981,-0.526816 -0.7013,0.409404 -0.93803,1.309702 -0.5288,2.011073 0.40989,0.70222 1.31148,0.938715 2.0131,0.527948 0.70063,-0.410356 0.9359,-1.311195 0.52556,-2.011922 z m 69.43548,119.201995 c -0.81612,-1.39399 -2.60752,-1.86288 -4.0019,-1.04745 -1.39318,0.81565 -1.86244,2.60555 -1.04865,3.99979 0.81496,1.39463 2.60592,1.86502 4.00101,1.05075 1.39548,-0.81541 1.86543,-2.60788 1.04954,-4.00309 z m -17.18579,-27.56348 c -0.95422,-1.63208 -3.05068,-2.18171 -4.68288,-1.22773 -1.63212,0.95415 -2.18176,3.05072 -1.22778,4.68292 0.9542,1.6321 3.05076,2.18174 4.68297,1.22772 1.63205,-0.95419 2.1817,-3.05072 1.22769,-4.68291 z M 411.21541,86.878282 c -0.22641,-0.388401 -0.72486,-0.520089 -1.1134,-0.293638 -0.38934,0.226887 -0.52052,0.726771 -0.29272,1.115456 0.22737,0.387938 0.7264,0.517954 1.11425,0.290372 0.38701,-0.226888 0.51774,-0.72438 0.29178,-1.112151 z m 40.94662,73.655248 c -0.89208,-1.5272 -2.85321,-2.04216 -4.38052,-1.15027 -1.52803,0.89254 -2.04262,2.85521 -1.14906,4.38264 0.89254,1.52805 2.85521,2.0426 4.38265,1.14903 1.52652,-0.89324 2.03999,-2.8548 1.14693,-4.3814 z m -8.8901,-14.56232 c -0.88946,-1.52253 -2.84466,-2.03591 -4.36733,-1.14673 -1.52339,0.88992 -2.03635,2.84656 -1.14558,4.36945 0.88994,1.52336 2.84657,2.03632 4.36946,1.14554 1.52187,-0.89057 2.03381,-2.84624 1.14345,-4.36826 z m -10.45752,-14.39487 c -0.78481,-1.34426 -2.51127,-1.79689 -3.85462,-1.01061 -1.34272,0.78544 -1.79428,2.51083 -1.00846,3.85335 0.78498,1.34196 2.50886,1.79397 3.85129,1.00977 1.34342,-0.78433 1.79643,-2.50929 1.01179,-3.85251 z m 41.38467,72.61674 c -0.94416,-1.61474 -3.01841,-2.15855 -4.63338,-1.21476 -1.61479,0.94413 -2.15864,3.01847 -1.2148,4.63343 0.94417,1.61479 3.01845,2.1586 4.63344,1.21476 1.61477,-0.94417 2.1586,-3.01847 1.21474,-4.63343 z M 403.02422,82.93409 c -0.13258,-0.224547 -0.42107,-0.300173 -0.64679,-0.169462 -0.22597,0.131701 -0.30298,0.421545 -0.17133,0.648009 0.13214,0.226887 0.42341,0.302989 0.6501,0.170401 0.2255,-0.133026 0.30065,-0.422948 0.16854,-0.648858 z m 19.12262,34.50983 c -0.70469,-1.20481 -2.25285,-1.60988 -3.45734,-0.90462 -1.20402,0.70421 -1.60951,2.25088 -0.90591,3.45522 0.70423,1.20401 2.25095,1.60956 3.45529,0.9059 1.20552,-0.70358 1.61208,-2.25132 0.90796,-3.4565 z m 35.09888,61.17077 c -0.92798,-1.58721 -2.96683,-2.12172 -4.55416,-1.19403 -1.58724,0.92797 -2.12188,2.96688 -1.19407,4.55426 0.92732,1.58873 2.96735,2.12434 4.55551,1.19603 1.58798,-0.92848 2.12209,-2.96878 1.19272,-4.55626 z m -46.0475,-72.99282 c -0.54829,-0.93909 -1.7544,-1.25527 -2.69293,-0.706 -0.93765,0.54896 -1.25279,1.75405 -0.70393,2.69179 0.54782,0.93822 1.75249,1.25484 2.69084,0.70719 0.93913,-0.54829 1.25536,-1.75446 0.70602,-2.69298 z m -9.66778,-8.951999 c -0.36272,-0.61925 -1.15868,-0.827875 -1.77882,-0.466367 -0.62067,0.362267 -0.83027,1.159159 -0.4682,1.780044 0.36273,0.621604 1.16098,0.830962 1.78206,0.467396 0.62005,-0.363656 0.8282,-1.160689 0.46496,-1.780879 z m 55.79151,99.284169 c -0.94911,-1.62189 -3.03316,-2.16748 -4.65528,-1.21879 -1.62258,0.948 -2.16961,3.03168 -1.22204,4.65451 0.94848,1.62336 3.03364,2.17004 4.65655,1.22082 1.62334,-0.94847 2.16999,-3.03364 1.22077,-4.65654 z m 16.61847,28.80607 c -0.86986,-1.48869 -2.78207,-1.99002 -4.27044,-1.1196 -1.48719,0.87056 -1.98744,2.78163 -1.1175,4.26921 0.86939,1.48789 2.78014,1.98961 4.26837,1.12077 1.48864,-0.86985 1.98999,-2.78201 1.11957,-4.27038 z m -31.54417,-52.38417 c -0.95968,-1.64116 -3.06791,-2.19388 -4.70934,-1.23464 -1.64117,0.95968 -2.19392,3.06791 -1.23465,4.70935 0.95969,1.64116 3.06786,2.19389 4.7093,1.23467 1.64121,-0.95966 2.19393,-3.06794 1.23469,-4.70938 z m -8.90858,-12.9642 c -0.9037,-1.54798 -2.89181,-2.0692 -4.43877,-1.16373 -1.54644,0.90439 -2.06659,2.89138 -1.16164,4.4375 0.90395,1.5456 2.88946,2.06617 4.43541,1.16285 1.54714,-0.90324 2.0688,-2.88982 1.165,-4.43662 z M 393.33571,90.844378 c -0.21429,-0.365071 -0.6836,-0.487845 -1.04945,-0.274964 -0.36648,0.213808 -0.49041,0.683995 -0.27684,1.050699 0.21429,0.367412 0.68579,0.491254 1.05276,0.276378 0.36601,-0.214759 0.48826,-0.685499 0.27404,-1.05156 z m 29.99324,54.573402 c -0.84736,-1.45122 -2.71123,-1.93984 -4.16156,-1.09105 -1.44966,0.84802 -1.93722,2.71079 -1.08894,4.1603 0.84754,1.44887 2.70881,1.93685 4.15822,1.0902 1.4504,-0.84683 1.93945,-2.70923 1.09228,-4.15945 z M 386.92269,87.89504 c -0.10418,-0.176921 -0.33099,-0.236199 -0.50834,-0.133025 -0.17647,0.104177 -0.2362,0.330988 -0.13303,0.508283 0.10418,0.176934 0.33099,0.236224 0.50828,0.133024 0.17694,-0.103534 0.23671,-0.330975 0.13348,-0.508295 z m 25.64547,43.94501 c -0.76933,-1.31569 -2.45942,-1.75879 -3.77534,-0.98988 -1.31568,0.76939 -1.75881,2.45953 -0.98984,3.77544 0.7694,1.31569 2.45949,1.75879 3.77539,0.98983 1.31568,-0.76938 1.75876,-2.45946 0.98979,-3.77539 z m -10.43148,-12.57706 c -0.65829,-1.12666 -2.10506,-1.50672 -3.23211,-0.84908 -1.12743,0.65875 -1.50711,2.10696 -0.84791,3.23415 0.65946,1.12599 2.1066,1.5046 3.23298,0.8458 1.12517,-0.65893 1.5042,-2.10463 0.84704,-3.23087 z m 39.46758,69.22732 c -0.96677,-1.65483 -3.09189,-2.21279 -4.74688,-1.24627 -1.65563,0.96725 -2.21312,3.09381 -1.24499,4.74893 0.96788,1.65419 3.09338,2.21067 4.74771,1.24301 1.65334,-0.96743 2.21022,-3.09149 1.24416,-4.74567 z m 14.90975,27.08313 c -0.95739,-1.63807 -3.06151,-2.18968 -4.69939,-1.23196 -1.6381,0.95734 -2.18975,3.0615 -1.23208,4.69938 0.95733,1.63809 3.06151,2.18974 4.69939,1.23208 1.63814,-0.95734 2.18984,-3.06156 1.23208,-4.6995 z m -64.08817,-106.5981 c -0.48981,-0.839 -1.56736,-1.12153 -2.40583,-0.6308 -0.83899,0.48981 -1.12152,1.56742 -0.63075,2.40584 0.48981,0.83901 1.5674,1.12153 2.40585,0.63075 0.83899,-0.4898 1.12146,-1.56736 0.63073,-2.40579 z m -8.08979,-7.63902 c -0.3436,-0.58719 -1.09847,-0.78415 -1.68518,-0.43975 -0.58639,0.34311 -0.78387,1.09644 -0.44116,1.68308 0.34312,0.58642 1.09646,0.7839 1.68308,0.44114 0.58804,-0.34218 0.78672,-1.09678 0.44349,-1.68429 z m 42.4353,75.10721 c -0.98082,-1.67852 -3.13681,-2.24375 -4.81499,-1.26237 -1.67697,0.98147 -2.24112,3.13638 -1.26021,4.81372 0.98029,1.67767 3.13484,2.24334 4.81282,1.26358 1.67852,-0.98082 2.24377,-3.1368 1.26238,-4.81493 z M 378.00689,96.546775 c -0.19047,-0.325393 -0.60833,-0.435101 -0.93392,-0.245086 -0.32537,0.190001 -0.43508,0.608331 -0.24509,0.933904 0.19002,0.325368 0.60835,0.435076 0.93397,0.245087 0.32537,-0.190477 0.43555,-0.608422 0.24509,-0.934008 z m 38.28073,66.308015 c -0.936,-1.6011 -2.99269,-2.14035 -4.59384,-1.20443 -1.60105,0.936 -2.14025,2.99268 -1.20438,4.59383 0.93599,1.60107 2.99269,2.14031 4.59383,1.20439 1.60106,-0.93599 2.14026,-2.99263 1.20439,-4.59379 z m 24.16239,43.68581 c -0.96736,-1.65545 -3.09377,-2.21294 -4.74893,-1.24511 -1.65544,0.9674 -2.21295,3.09384 -1.24506,4.749 0.96744,1.65539 3.09381,2.21288 4.74893,1.24499 1.65541,-0.96737 2.21291,-3.09377 1.24506,-4.74888 z M 373.28452,93.84156 c -0.0909,-0.15687 -0.2927,-0.209615 -0.4491,-0.117682 -0.15546,0.09183 -0.20727,0.292237 -0.11575,0.447693 0.0914,0.154516 0.28991,0.206335 0.44535,0.116781 0.15593,-0.09055 0.20915,-0.290371 0.11858,-0.446766 z m 31.73931,55.01694 c -0.86837,-1.48725 -2.77811,-1.98868 -4.26506,-1.11989 -1.48804,0.86882 -1.98909,2.77995 -1.11874,4.26706 0.86948,1.48658 2.77959,1.98658 4.26591,1.11667 1.48575,-0.86901 1.98615,-2.77766 1.11789,-4.26384 z m 50.50626,86.86767 c -0.9203,-1.57225 -2.94073,-2.10118 -4.51341,-1.18155 -1.57295,0.9192 -2.10333,2.93919 -1.18482,4.51256 0.91967,1.57375 2.94116,2.10371 4.51463,1.18363 1.57375,-0.91967 2.10371,-2.94117 1.1836,-4.51464 z M 393.47128,135.22386 c -0.7194,-1.2288 -2.29815,-1.64275 -3.5279,-0.92493 -1.23031,0.71868 -1.64534,2.29854 -0.92702,3.52913 0.7192,1.23114 2.3005,1.64573 3.53123,0.92578 1.22965,-0.71987 1.64313,-2.3001 0.92369,-3.52998 z m 31.42255,58.57217 c -1.01387,-1.73411 -3.24179,-2.31741 -4.97538,-1.3027 -1.73328,1.01335 -2.31705,3.23988 -1.30393,4.97333 1.01336,1.73333 3.23994,2.31709 4.97339,1.30392 1.73476,-1.01274 2.31951,-3.24029 1.30592,-4.97455 z m -42.06459,-70.61531 c -0.56883,-0.97313 -1.81883,-1.30087 -2.7919,-0.732 -0.97316,0.5688 -1.30092,1.81884 -0.73199,2.79197 0.56879,0.97316 1.81883,1.30086 2.79193,0.73194 0.97313,-0.56884 1.30087,-1.81883 0.73196,-2.79191 z m -8.78037,-9.51826 c -0.38001,-0.64998 -1.21471,-0.86892 -1.86465,-0.48901 -0.64996,0.38001 -0.8689,1.21471 -0.489,1.86464 0.38002,0.64997 1.2147,0.86887 1.86463,0.48894 0.64999,-0.37998 0.86893,-1.21463 0.48902,-1.86457 z M 439.108,225.99438 c -0.93367,-1.59806 -2.98631,-2.13624 -4.58396,-1.20182 -1.59806,0.93368 -2.13624,2.98631 -1.20182,4.58395 0.93366,1.59808 2.9863,2.13625 4.58395,1.20183 1.59806,-0.93368 2.13625,-2.98631 1.20183,-4.58396 z M 367.54375,106.92747 c -0.25536,-0.43697 -0.81682,-0.58444 -1.25401,-0.32913 -0.43696,0.25537 -0.5843,0.81687 -0.32912,1.25403 0.25536,0.43695 0.81687,0.58442 1.25401,0.32911 0.43696,-0.25536 0.58434,-0.81688 0.32912,-1.25401 z m 42.09447,74.55756 c -0.96602,-1.65054 -3.08696,-2.20585 -4.73784,-1.24043 -1.65124,0.96486 -2.20803,3.08541 -1.24373,4.73697 0.96537,1.65205 3.08742,2.20838 4.73913,1.24243 1.65198,-0.96531 2.20826,-3.08733 1.24244,-4.73897 z m -46.65955,-78.9588 c -0.11151,-0.19092 -0.35714,-0.25536 -0.54794,-0.14323 -0.19,0.11202 -0.25348,0.35665 -0.1419,0.54671 0.11112,0.19046 0.35526,0.25535 0.54591,0.14471 0.19141,-0.11112 0.25583,-0.35713 0.14383,-0.54788 z m 34.41113,65.38158 c -0.86267,-1.47575 -2.75835,-1.97274 -4.2341,-1.11009 -1.47576,0.86266 -1.97276,2.75834 -1.1101,4.23412 0.86267,1.47575 2.75835,1.97274 4.23411,1.11007 1.47576,-0.86266 1.97275,-2.75833 1.11009,-4.2341 z m 25.4177,45.32164 c -0.99353,-1.70039 -3.17766,-2.27305 -4.87765,-1.27879 -1.70044,0.99352 -2.27305,3.17771 -1.27879,4.87769 0.99352,1.70039 3.17766,2.27306 4.87763,1.27881 1.70045,-0.99352 2.27308,-3.17772 1.27881,-4.87771 z m -37.65161,-59.30406 c -0.78398,-1.34183 -2.50706,-1.79437 -3.84918,-1.01094 -1.3427,0.78444 -1.79489,2.50906 -1.00978,3.85134 0.78445,1.34268 2.50906,1.79481 3.85131,1.00969 1.34118,-0.78514 1.79223,-2.50865 1.00765,-3.85009 z m 52.01329,91.62581 c -0.8777,-1.50285 -2.80792,-2.00889 -4.31006,-1.13003 -1.50131,0.87839 -2.00627,2.80751 -1.12787,4.30881 0.87789,1.50055 2.80554,2.00596 4.30675,1.12919 1.50199,-0.87725 2.00841,-2.80596 1.13118,-4.30797 z M 373.8836,140.47899 c -0.6656,-1.1388 -2.12844,-1.52232 -3.26714,-0.85656 -1.13884,0.66562 -1.52236,2.12844 -0.8566,3.2672 0.66561,1.13881 2.1285,1.52235 3.26721,0.85656 1.13878,-0.66562 1.52229,-2.12849 0.85653,-3.2672 z m 32.4461,59.7064 c -0.97747,-1.67267 -3.12598,-2.23595 -4.79841,-1.25804 -1.67263,0.97747 -2.23595,3.12597 -1.25804,4.79842 0.97747,1.67268 3.12603,2.23595 4.79847,1.25803 1.67263,-0.9775 2.2359,-3.12603 1.25798,-4.79841 z m -42.01282,-71.14304 c -0.49236,-0.84174 -1.57369,-1.12526 -2.41572,-0.63335 -0.8433,0.49171 -1.12784,1.57416 -0.63546,2.41699 0.49285,0.84259 1.57565,1.12569 2.41783,0.63214 0.84181,-0.49237 1.1253,-1.57375 0.63335,-2.41578 z m -6.98419,-8.80218 c -0.34264,-0.58463 -1.09405,-0.78172 -1.67975,-0.4407 -0.58599,0.3422 -0.78396,1.09455 -0.44257,1.681 0.34266,0.5868 1.09651,0.78432 1.68309,0.44114 0.58536,-0.34359 0.78189,-1.09607 0.4393,-1.68186 z m -4.67768,-6.07073 c -0.20821,-0.35479 -0.66418,-0.47462 -1.01971,-0.26749 -0.35619,0.20774 -0.47697,0.66472 -0.26936,1.02102 0.20773,0.35711 0.6665,0.47761 1.02302,0.26842 0.35574,-0.20869 0.47482,-0.66623 0.2661,-1.02184 z m 68.2456,119.67119 c -0.91224,-1.5617 -2.91772,-2.0883 -4.47951,-1.17619 -1.56255,0.91272 -2.08877,2.91968 -1.17502,4.48161 0.9134,1.56105 2.91931,2.08616 4.48045,1.17289 1.56021,-0.91295 2.08573,-2.91735 1.17408,-4.47831 z m -29.70175,-46.58417 c -0.93872,-1.60508 -3.00106,-2.14497 -4.6058,-1.20574 -1.60432,0.9382 -2.14465,2.99909 -1.20699,4.60375 0.93818,1.60427 2.99908,2.1446 4.60372,1.20696 1.60579,-0.93755 2.14717,-2.99951 1.20907,-4.60497 z m -12.8692,-13.49649 c -0.85347,-1.45942 -2.72824,-1.95096 -4.18793,-1.098 -1.46092,0.85282 -1.95349,2.72866 -1.10006,4.18918 0.85398,1.46019 2.73015,1.9513 4.18999,1.09675 1.45942,-0.85347 1.9509,-2.72823 1.098,-4.18793 z m 25.37152,46.86324 c -0.92147,-1.57754 -2.9477,-2.10874 -4.52457,-1.18622 -1.57749,0.92148 -2.10869,2.94764 -1.18618,4.52451 0.92214,1.576 2.94721,2.10613 4.5233,1.18414 1.57665,-0.92098 2.10829,-2.9457 1.18745,-4.52243 z m -37.75453,-60.21637 c -0.71169,-1.21923 -2.27712,-1.63042 -3.49613,-0.91836 -1.21848,0.71281 -1.62821,2.27862 -0.91504,3.49693 0.71235,1.21775 2.27672,1.62791 3.49486,0.9163 1.21774,-0.71233 1.62787,-2.2767 0.91631,-3.49487 z m 52.66241,92.97044 c -0.78755,-1.34611 -2.51728,-1.79884 -3.86328,-1.01112 -1.34535,0.78708 -1.79846,2.51535 -1.01236,3.86125 0.78644,1.34677 2.51573,1.8009 3.86241,1.01439 1.34762,-0.78686 1.8014,-2.5177 1.01323,-3.86452 z M 340.98926,120.9442 c -0.078,-0.13585 -0.2521,-0.18159 -0.38655,-0.10135 -0.13407,0.0785 -0.17833,0.25117 -0.099,0.38468 0.078,0.13347 0.24929,0.1788 0.38282,0.10084 0.13495,-0.0775 0.18112,-0.24976 0.10263,-0.38422 z m 14.74859,26.48717 c -0.54826,-0.93652 -1.75189,-1.25133 -2.68842,-0.70309 -0.93576,0.54774 -1.25093,1.74992 -0.70432,2.68636 0.54709,0.93721 1.75036,1.25346 2.68759,0.70636 0.93801,-0.54754 1.25383,-1.75226 0.70515,-2.68963 z m -7.82346,-10.70644 c -0.40102,-0.68541 -1.28147,-0.91621 -1.96697,-0.51549 -0.68541,0.40101 -0.91616,1.28143 -0.51548,1.96693 0.40101,0.6854 1.28146,0.9162 1.96698,0.51547 0.68557,-0.40054 0.91652,-1.28127 0.51593,-1.96691 z m -5.17372,-8.13358 c -0.23201,-0.39635 -0.74141,-0.52889 -1.1373,-0.29646 -0.39541,0.23158 -0.52865,0.73953 -0.29784,1.13531 0.2311,0.39681 0.73989,0.53103 1.13646,0.29971 0.39775,-0.23155 0.53141,-0.7419 0.29832,-1.13856 z m 44.54326,78.30679 c -0.88003,-1.50581 -2.81433,-2.01294 -4.31996,-1.13254 -1.50582,0.88004 -2.01289,2.81428 -1.13254,4.31992 0.88004,1.50582 2.81422,2.01294 4.31988,1.13258 1.50585,-0.88002 2.01302,-2.8143 1.13262,-4.31996 z m 14.15203,34.52054 c -0.83447,-1.4274 -2.66811,-1.90809 -4.09556,-1.07373 -1.42734,0.83452 -1.90804,2.66801 -1.07371,4.09546 0.83446,1.42738 2.66805,1.90811 4.0955,1.07376 1.42739,-0.83446 1.9081,-2.668 1.07377,-4.09549 z m -28.43883,-47.91769 c -0.83506,-1.42921 -2.67042,-1.91121 -4.10002,-1.07671 -1.43001,0.83561 -1.9116,2.67246 -1.07545,4.10215 0.83558,1.43 2.67239,1.9116 4.10208,1.07544 1.42857,-0.83625 1.90903,-2.67198 1.07339,-4.10088 z m -12.7376,-13.02293 c -0.74974,-1.28254 -2.39721,-1.71441 -3.67973,-0.96468 -1.28249,0.74975 -1.71441,2.39717 -0.96473,3.67971 0.74974,1.28254 2.39716,1.71445 3.6797,0.96471 1.28258,-0.7497 1.71449,-2.3972 0.96476,-3.67974 z m 23.99818,47.15742 c -0.82107,-1.40431 -2.625,-1.87727 -4.02949,-1.05638 -1.40432,0.82107 -1.87733,2.625 -1.05644,4.02949 0.82108,1.40433 2.62507,1.87728 4.02949,1.0564 1.40434,-0.82108 1.87733,-2.62501 1.05644,-4.02951 z M 331.2957,137.08125 c -0.11807,-0.2026 -0.3786,-0.27075 -0.58103,-0.15219 -0.2026,0.11807 -0.27077,0.37815 -0.15218,0.58071 0.11808,0.20261 0.37813,0.27076 0.58065,0.15219 0.2026,-0.11807 0.27075,-0.37861 0.15219,-0.58098 z m 17.70146,30.48675 c -0.56519,-0.9677 -1.80814,-1.29354 -2.77544,-0.72761 -0.96768,0.5652 -1.29358,1.80815 -0.72764,2.77543 0.5659,0.96621 1.80777,1.29099 2.77422,0.72551 0.9669,-0.56473 1.29317,-1.80618 0.72886,-2.77333 z m -8.47615,-12.13843 c -0.44442,-0.76019 -1.42108,-1.01616 -2.18138,-0.57178 -0.76024,0.44443 -1.01621,1.42115 -0.57178,2.18145 0.44444,0.76018 1.4211,1.01615 2.18138,0.57178 0.7602,-0.44444 1.01623,-1.42115 0.57178,-2.18145 z m -5.84565,-9.92598 c -0.30065,-0.51385 -0.96104,-0.68686 -1.47516,-0.38655 -0.51395,0.30065 -0.68695,0.96109 -0.38655,1.47524 0.30066,0.5139 0.96103,0.6869 1.47521,0.38655 0.51384,-0.30065 0.68689,-0.96102 0.38654,-1.47515 z m 65.52619,114.72753 c -0.7349,-1.25667 -2.34963,-1.67921 -3.60589,-0.9436 -1.25583,0.73441 -1.67882,2.34771 -0.94477,3.60383 0.73438,1.25588 2.34767,1.67884 3.60377,0.94482 1.25733,-0.73376 1.68136,-2.34814 0.94689,-3.60505 z m -31.08336,-46.83 c -0.74497,-1.27456 -2.38216,-1.70376 -3.65663,-0.95865 -1.27449,0.74498 -1.7037,2.38212 -0.95863,3.6566 0.74496,1.2745 2.38211,1.70371 3.65653,0.95864 1.27454,-0.74492 1.70381,-2.38213 0.95873,-3.65659 z M 356.6599,199.82368 c -0.71393,-1.2191 -2.28068,-1.62907 -3.50023,-0.91593 -1.2198,0.71281 -1.63127,2.27918 -0.91921,3.49945 0.71328,1.22052 2.2811,1.63158 3.50145,0.91793 1.22054,-0.71327 1.6316,-2.28109 0.91799,-3.50145 z m 26.08436,47.66205 c -0.75195,-1.28563 -2.40348,-1.71863 -3.68951,-0.96734 -1.28567,0.75198 -1.71871,2.4036 -0.96733,3.68964 0.75133,1.28711 2.40395,1.72118 3.6908,0.96938 1.28644,-0.75248 1.71902,-2.4055 0.96604,-3.69168 z m -37.87681,-60.1197 c -0.61567,-1.05192 -1.96707,-1.40625 -3.01964,-0.79171 -1.05347,0.61497 -1.40886,1.96749 -0.79379,3.0209 0.61541,1.05425 1.96942,1.40924 3.02294,0.79255 1.05274,-0.61612 1.40665,-1.96903 0.79049,-3.02174 z M 323.99729,155.4454 c -0.1345,-0.22921 -0.42997,-0.30578 -0.65881,-0.17086 -0.22874,0.13392 -0.30531,0.42809 -0.17226,0.65675 0.13302,0.23014 0.4281,0.30859 0.65791,0.1746 0.23108,-0.13407 0.30857,-0.42996 0.1732,-0.66003 z m 11.44078,19.62684 c -0.47691,-0.81466 -1.52404,-1.08842 -2.33862,-0.61132 -0.81388,0.47645 -1.088,1.52206 -0.61258,2.33651 0.47575,0.81537 1.52249,1.09057 2.33778,0.61464 0.81617,-0.47622 1.09094,-1.5244 0.61342,-2.33983 z m -6.6595,-11.22473 c -0.31139,-0.53419 -0.99764,-0.71407 -1.53123,-0.40148 -0.53278,0.31231 -0.71168,0.9972 -0.39961,1.53005 0.31092,0.53346 0.99562,0.71383 1.52918,0.40288 0.5342,-0.31136 0.71411,-0.99762 0.40148,-1.53125 z m 37.97795,69.49449 c -0.6939,-1.18913 -2.22105,-1.58947 -3.40911,-0.89377 -1.18763,0.69458 -1.58692,2.22067 -0.89171,3.40787 0.6941,1.18684 2.21874,1.58653 3.4058,0.89292 1.18834,-0.69339 1.58911,-2.21911 0.89502,-3.40702 z m 15.78473,31.76368 c -0.59608,-1.02125 -1.90735,-1.36582 -2.92845,-0.76948 -1.02059,0.59727 -1.36368,1.9088 -0.76627,2.92931 0.59681,1.01979 1.90693,1.36323 2.92726,0.76743 1.01979,-0.59676 1.36329,-1.9069 0.76746,-2.92726 z m -29.25312,-46.05562 c -0.64265,-1.09981 -2.05533,-1.47021 -3.15497,-0.82714 -1.09982,0.64265 -1.47021,2.0554 -0.82713,3.15498 0.64334,1.09832 2.05496,1.46763 3.15374,0.82503 1.09903,-0.64217 1.46979,-2.0534 0.82836,-3.15287 z m -10.18686,-13.5639 c -0.59671,-1.01991 -1.90693,-1.36339 -2.92726,-0.76742 -1.0199,0.59668 -1.36342,1.90692 -0.76746,2.92723 0.5967,1.0199 1.90692,1.3634 2.92723,0.76743 1.01991,-0.5967 1.36341,-1.90693 0.76749,-2.92724 z m -10.03244,-11.83222 c -0.48349,-0.82761 -1.54608,-1.10698 -2.37406,-0.62417 -0.82838,0.48397 -1.10736,1.54798 -0.62292,2.3761 0.48391,0.8284 1.54797,1.10735 2.37609,0.62295 0.8269,-0.48463 1.10481,-1.54755 0.62089,-2.37488 z m -7.65422,-11.5067 c -0.36135,-0.61694 -1.15421,-0.82411 -1.77096,-0.46264 -0.61613,0.36085 -0.82368,1.15224 -0.46402,1.76883 0.36039,0.61618 1.15217,0.82382 1.76883,0.46404 0.61752,-0.35993 0.82611,-1.15271 0.4659,-1.77011 z m 40.7635,70.14913 c -0.5856,-1.00192 -1.87262,-1.33935 -2.87449,-0.75361 -1.00191,0.58564 -1.33931,1.87261 -0.75356,2.87449 0.58564,1.00184 1.87257,1.33926 2.87439,0.75357 1.00193,-0.58561 1.33935,-1.87258 0.75366,-2.87445 z M 319.4482,174.3121 c -0.16478,-0.28197 -0.52678,-0.37674 -0.80855,-0.21194 -0.28198,0.16479 -0.37674,0.52668 -0.21195,0.8085 0.16478,0.28197 0.52672,0.37675 0.80851,0.21194 0.28198,-0.16479 0.37675,-0.52667 0.21194,-0.8085 z m 32.61486,63.50866 c -0.57323,-0.97949 -1.83163,-1.30942 -2.8117,-0.73716 -0.98101,0.57256 -1.312,1.83205 -0.73924,2.81296 0.57304,0.98179 1.83403,1.31241 2.81502,0.73802 0.9803,-0.57374 1.30985,-1.8336 0.73592,-2.81382 z m 15.69454,30.13696 c -0.55217,-0.94416 -1.76512,-1.26217 -2.70947,-0.71028 -0.94417,0.55217 -1.26213,1.76506 -0.71028,2.70942 0.55213,0.94417 1.76502,1.26218 2.70938,0.71032 0.94426,-0.55213 1.26221,-1.7651 0.71037,-2.70946 z m -26.84061,-44.41436 c -0.49255,-0.84353 -1.57594,-1.1276 -2.419,-0.63424 -0.84353,0.49255 -1.12755,1.57593 -0.6342,2.419 0.49322,0.84202 1.57553,1.12503 2.4178,0.63213 0.84267,-0.49207 1.12712,-1.57397 0.6354,-2.41689 z m -8.45272,-12.92061 c -0.4708,-0.80767 -1.5075,-1.08025 -2.31465,-0.60862 -0.80703,0.47198 -1.07812,1.50906 -0.6053,2.31556 0.4715,0.80613 1.50709,1.07759 2.31341,0.60646 0.80617,-0.47146 1.07768,-1.50704 0.60654,-2.3134 z m -8.00696,-11.41226 c -0.352,-0.60081 -1.12433,-0.80319 -1.72604,-0.45235 -0.60226,0.35151 -0.80566,1.12473 -0.45424,1.72719 0.352,0.60314 1.1267,0.80623 1.72932,0.45329 0.60165,-0.35247 0.80365,-1.12629 0.45096,-1.72807 z m -6.56097,-6.69676 c -0.19326,-0.33145 -0.61916,-0.44302 -0.95042,-0.24929 -0.33145,0.19327 -0.44303,0.61921 -0.24929,0.95047 0.19327,0.33146 0.61917,0.44304 0.95044,0.24929 0.33145,-0.19327 0.44348,-0.6192 0.24927,-0.95047 z m 35.01521,62.05523 c -0.47787,-0.81811 -1.52867,-1.09359 -2.34643,-0.61514 -0.81667,0.47851 -1.09113,1.52823 -0.61317,2.3452 0.47738,0.81735 1.52673,1.09328 2.34439,0.61641 0.81817,-0.47784 1.09366,-1.52866 0.61521,-2.34647 z m -12.11752,-13.8884 c -0.40381,-0.69203 -1.2924,-0.92577 -1.98466,-0.52211 -0.69283,0.40428 -0.92611,1.29435 -0.5208,1.98671 0.40521,0.69139 1.29388,0.9237 1.9855,0.5189 0.69058,-0.40475 0.9233,-1.29198 0.52014,-1.98345 z m -15.76139,-25.98732 c -0.36833,-0.63034 -1.17816,-0.8426 -1.80852,-0.47412 -0.63029,0.36834 -0.84255,1.17818 -0.47407,1.80852 0.36833,0.63027 1.17819,0.84253 1.80851,0.47407 0.63033,-0.36832 0.84254,-1.1782 0.47408,-1.80854 z m 6.73979,12.28994 c -0.42903,-0.73153 -1.36924,-0.97722 -2.101,-0.54895 -0.73069,0.42809 -0.97685,1.36723 -0.55021,2.09889 0.42763,0.73233 1.36756,0.97965 2.10017,0.55261 0.73301,-0.4281 0.97993,-1.36947 0.55126,-2.10217 z m 22.37,41.80506 c -0.33284,-0.56959 -1.06414,-0.76151 -1.63354,-0.42858 -0.56954,0.33286 -0.7614,1.06416 -0.42855,1.63356 0.33285,0.56958 1.06414,0.76152 1.63354,0.42856 0.56953,-0.33286 0.76142,-1.06416 0.42855,-1.63354 z m -35.50769,-59.96776 c -0.22781,-0.38934 -0.72853,-0.51982 -1.11755,-0.2913 -0.38842,0.22736 -0.51935,0.72662 -0.29271,1.11546 0.22735,0.3884 0.72668,0.51917 1.11547,0.29223 0.3898,-0.22689 0.52177,-0.72704 0.29456,-1.11666 z m -5.57752,-6.00859 c -0.0751,-0.12888 -0.24088,-0.17226 -0.36973,-0.0971 -0.12888,0.0756 -0.17226,0.24088 -0.0971,0.36973 0.0751,0.12888 0.24088,0.17226 0.36973,0.0971 0.12888,-0.0756 0.17226,-0.24088 0.0971,-0.36973 z m 27.73783,51.53263 c -0.32165,-0.55208 -1.03015,-0.73859 -1.58196,-0.41642 -0.55153,0.32259 -0.73666,1.03166 -0.41316,1.58285 0.32212,0.55067 1.02971,0.73622 1.58076,0.41456 0.55064,-0.3226 0.73596,-1.02989 0.41409,-1.58086 z m -17.8736,-28.49154 c -0.24134,-0.41548 -0.77423,-0.55581 -1.18926,-0.31371 -0.41453,0.24275 -0.55358,0.77584 -0.31043,1.19014 0.24228,0.41409 0.77386,0.55349 1.18813,0.31186 0.41363,-0.24231 0.55325,-0.77389 0.31139,-1.18806 z m 7.04404,14.17718 c -0.2997,-0.51091 -0.95645,-0.68228 -1.46735,-0.38281 -0.51012,0.2988 -0.68197,0.95446 -0.38421,1.46528 0.29831,0.51156 0.9549,0.68436 1.46646,0.38606 0.51235,-0.29877 0.68481,-0.95686 0.3847,-1.46857 z m -13.5436,-19.65511 c -0.10971,-0.18675 -0.35012,-0.24929 -0.53658,-0.1391 -0.18579,0.10919 -0.24881,0.34825 -0.14012,0.53456 0.10919,0.1858 0.34824,0.24837 0.53458,0.14014 0.18719,-0.1083 0.25115,-0.34874 0.14235,-0.53579 z m 26.27818,47.43418 c -0.19841,-0.33893 -0.63411,-0.45331 -0.97353,-0.25537 -0.34033,0.19794 -0.45564,0.63459 -0.25725,0.97475 0.19842,0.34126 0.63668,0.4561 0.97697,0.25583 0.33984,-0.19887 0.45328,-0.63606 0.25395,-0.9756 z m -20.4509,-30.04196 c -0.11717,-0.1998 -0.37395,-0.26703 -0.57416,-0.15032 -0.19982,0.11716 -0.26704,0.37394 -0.15032,0.57421 0.11716,0.19981 0.37393,0.26702 0.57416,0.15033 0.1998,-0.11717 0.26703,-0.37395 0.15032,-0.57422 z m 8.54556,15.06829 c -0.16712,-0.28664 -0.53528,-0.38327 -0.82167,-0.21567 -0.28664,0.16712 -0.38327,0.53546 -0.21521,0.82176 0.16713,0.28665 0.53531,0.38328 0.82171,0.21569 0.28665,-0.16713 0.38329,-0.53542 0.21522,-0.82172 z"
         sodipodi:nodetypes="cscccccccccccsccccssssssscccssccccccccccccccccccscccssscccssscccssccccccccscccccccccscccccccccccccccscccsscccccsssssccccccccccccccccscccsssssssccccccccccscccsscscsccccccccccccssssscccccccccccccccccccccccccscccsscccccccccccccccccccccsssssccccccccccccsscccccccscscsscscssccccccccccscccssccccccccccccccccccccscccsscccccccccccccccscccssccccccccccccccccccccccccccccccccccccccccccccccccccccccccccccccccccccccccccsssccccccccccccccccccccccccccccccccccccccsssssssssscccccscscscccccccccccsssssccccccccccssssscccccccccccccccccccccsscssscscscccccccccccscscscccccccccccccccssssscccsccccccccccccccscsccccccssssscccccccccccccccccccccscccsscccccscscsccccccccccsssssscccssccccccscccccccccccccccccccccccccccccccccccsssssssssssccccccccccccccccccccscccssccccccccccscccssssssssscccsscccccccccccscccssccccccscccsscssscccccccccccccccccccscccss" /><path
         style="fill:none;fill-opacity:1;stroke:#000000;stroke-width:1.16709;stroke-linecap:butt;stroke-linejoin:round;stroke-dasharray:none;stroke-dashoffset:0;stroke-opacity:1"
         id="path12"
         sodipodi:type="arc"
         sodipodi:cx="434.52194"
         sodipodi:cy="200.427"
         sodipodi:rx="38.748981"
         sodipodi:ry="38.748981"
         sodipodi:start="3.9318863"
         sodipodi:end="5.5139162"
         sodipodi:arc-type="arc"
         d="m 407.25674,172.89353 a 38.748981,38.748981 0 0 1 27.67253,-11.21337 38.748981,38.748981 0 0 1 27.43069,11.79265"
         sodipodi:open="true"
         inkscape:transform-center-x="-0.32143835"
         inkscape:transform-center-y="-32.833188" /><path
         style="fill:none;fill-opacity:1;stroke:#feff08;stroke-width:1.16709;stroke-linecap:round;stroke-linejoin:round;stroke-dasharray:none;stroke-dashoffset:0;stroke-opacity:1;marker-start:url(#DartArrow)"
         d="m 439.77442,195.34457 80.20379,-77.32396"
         id="path11"
         sodipodi:nodetypes="cc" /><path
         id="path36-1-5"
         style="fill:url(#radialGradient2);stroke:none;stroke-width:2.89692;stroke-linecap:round;stroke-opacity:1"
         d="M 456.68137,238.19751 C 400.2262,271.19939 340.29703,280.24656 331.64844,259.08593 298.64667,202.63081 317.65935,130.11154 374.1145,97.109719 430.56967,64.107922 503.08887,83.12058 536.0907,139.5758 c 14.00754,20.95133 -22.95412,65.61989 -79.40933,98.62171 z"
         sodipodi:nodetypes="scscs" /><path
         style="fill:none;fill-opacity:1;stroke:#2408ee;stroke-width:1.21525;stroke-linecap:butt;stroke-linejoin:round;stroke-dasharray:none;stroke-dashoffset:0;stroke-opacity:1;marker-end:url(#SemiCircleEmpty)"
         d="M 434.50514,200.41808 328.43226,145.42116"
         id="path13" /><path
         id="path36-1-5-0"
         style="fill:none;fill-opacity:1;stroke:#000000;stroke-width:1.16709;stroke-linecap:round;stroke-dasharray:4.66836, 4.66836;stroke-dashoffset:0;stroke-opacity:1"
         d="M 331.64844,259.08593 C 298.64667,202.63081 317.65935,130.11154 374.1145,97.109719 430.56967,64.107927 503.08887,83.12058 536.0907,139.5758"
         sodipodi:nodetypes="csc" /><path
         d="m 521.11629,117.35512 c -0.36786,-0.6285 -1.17587,-0.83947 -1.80403,-0.47102 -0.6277,0.36738 -0.8391,1.17389 -0.47232,1.80193 0.36742,0.6277 1.17388,0.83907 1.80196,0.47229 0.62924,-0.36646 0.84189,-1.17414 0.47471,-1.8031 z"
         style="fill:#feff08;fill-opacity:1;stroke:none;stroke-width:4.66836;stroke-linecap:round;stroke-linejoin:miter;stroke-dasharray:none;stroke-dashoffset:0;stroke-opacity:1"
         id="path1-3" /></g><g
       id="g19"
       transform="matrix(0.51647564,0,0,0.51647564,60.30115,99.384846)"><path
         style="fill:#ffffff;fill-opacity:1;stroke:#000000;stroke-width:1.21525;stroke-linecap:butt;stroke-linejoin:round;stroke-dasharray:none;stroke-dashoffset:0;stroke-opacity:1"
         d="m -45.792815,196.83576 c 0,-14.40867 18.622682,-23.30251 36.6796524,-22.87113 5.8710365,0 10.6304485,10.23976 10.6304485,22.87113 0,12.63138 -4.759412,22.87113 -10.6304485,22.87113 -17.3882144,0.43139 -36.6796524,-8.46246 -36.6796524,-22.87113 z"
         id="path17"
         sodipodi:nodetypes="acsca" /><ellipse
         style="fill:url(#radialGradient19);fill-opacity:1;stroke:#000000;stroke-width:0.862753;stroke-linecap:butt;stroke-linejoin:round;stroke-dasharray:none;stroke-dashoffset:0;stroke-opacity:1"
         id="path16-3"
         cx="-9.1131563"
         cy="196.83575"
         rx="10.630447"
         ry="22.871138" /><path
         style="fill:none;fill-opacity:1;stroke:#000000;stroke-width:4.861;stroke-linecap:round;stroke-linejoin:round;stroke-dasharray:none;stroke-dashoffset:0;stroke-opacity:1"
         d="m 12.010324,181.13634 16.737401,-6.18571"
         id="path18"
         sodipodi:nodetypes="cc" /><path
         style="fill:none;fill-opacity:1;stroke:#000000;stroke-width:4.861;stroke-linecap:round;stroke-linejoin:round;stroke-dasharray:none;stroke-dashoffset:0;stroke-opacity:1"
         d="m 14.377297,195.59965 17.447414,3e-5"
         id="path18-4"
         sodipodi:nodetypes="cc" /><path
         style="fill:none;fill-opacity:1;stroke:#000000;stroke-width:4.861;stroke-linecap:round;stroke-linejoin:round;stroke-dasharray:none;stroke-dashoffset:0;stroke-opacity:1"
         d="m 12.010336,210.10477 16.737401,6.18565"
         id="path18-6"
         sodipodi:nodetypes="cc" /></g><path
       style="fill:none;fill-opacity:1;stroke:#d352ff;stroke-width:1.21525;stroke-linecap:round;stroke-linejoin:round;stroke-dasharray:none;stroke-dashoffset:0;stroke-opacity:1;marker-end:url(#SemiCircleEmpty)"
       d="M 95.298966,200.41808 H 255.31288"
       id="path19"
       sodipodi:nodetypes="cc" /></g></svg>
